<svg xmlns="http://www.w3.org/2000/svg" xmlns:xlink="http://www.w3.org/1999/xlink" contentStyleType="text/css" data-diagram-type="CLASS" height="1147px" preserveAspectRatio="none" style="width:1616px;height:1147px;background:#FFFFFF;" version="1.1" viewBox="0 0 1616 1147" width="1616px" zoomAndPan="magnify"><defs/><g><!--class User--><g id="elem_User"><rect codeLine="1" fill="#F1F1F1" height="162.0781" id="User" rx="2.5" ry="2.5" style="stroke:#181818;stroke-width:0.5;" width="384.6338" x="462.5" y="7"/><ellipse cx="634.6118" cy="23" fill="#ADD1B2" rx="11" ry="11" style="stroke:#181818;stroke-width:1;"/><path d="M637.5806,28.6406 Q637.0024,28.9375 636.3618,29.0781 Q635.7212,29.2344 635.0181,29.2344 Q632.5181,29.2344 631.1899,27.5938 Q629.8774,25.9375 629.8774,22.8125 Q629.8774,19.6875 631.1899,18.0313 Q632.5181,16.375 635.0181,16.375 Q635.7212,16.375 636.3618,16.5313 Q637.0181,16.6875 637.5806,16.9844 L637.5806,19.7031 Q636.9556,19.125 636.3618,18.8594 Q635.7681,18.5781 635.1431,18.5781 Q633.7993,18.5781 633.1118,19.6563 Q632.4243,20.7188 632.4243,22.8125 Q632.4243,24.9063 633.1118,25.9844 Q633.7993,27.0469 635.1431,27.0469 Q635.7681,27.0469 636.3618,26.7813 Q636.9556,26.5 637.5806,25.9219 L637.5806,28.6406 Z " fill="#000000"/><text fill="#000000" font-family="sans-serif" font-size="14" lengthAdjust="spacing" textLength="31.9102" x="655.1118" y="27.8467">User</text><line style="stroke:#181818;stroke-width:0.5;" x1="463.5" x2="846.1338" y1="39" y2="39"/><polygon fill="transparent" points="473.5,47.6484,477.5,51.6484,473.5,55.6484,469.5,51.6484" style="stroke:#B38D22;stroke-width:1;"/><text fill="#000000" font-family="sans-serif" font-size="14" lengthAdjust="spacing" textLength="94.5" x="482.5" y="55.9951">userId: String</text><polygon fill="transparent" points="473.5,63.9453,477.5,67.9453,473.5,71.9453,469.5,67.9453" style="stroke:#B38D22;stroke-width:1;"/><text fill="#000000" font-family="sans-serif" font-size="14" lengthAdjust="spacing" textLength="90.6514" x="482.5" y="72.292">name: String</text><polygon fill="transparent" points="473.5,80.2422,477.5,84.2422,473.5,88.2422,469.5,84.2422" style="stroke:#B38D22;stroke-width:1;"/><text fill="#000000" font-family="sans-serif" font-size="14" lengthAdjust="spacing" textLength="89.5576" x="482.5" y="88.5889">email: String</text><polygon fill="transparent" points="473.5,96.5391,477.5,100.5391,473.5,104.5391,469.5,100.5391" style="stroke:#B38D22;stroke-width:1;"/><text fill="#000000" font-family="sans-serif" font-size="14" lengthAdjust="spacing" textLength="117.6602" x="482.5" y="104.8857">password: String</text><line style="stroke:#181818;stroke-width:0.5;" x1="463.5" x2="846.1338" y1="112.1875" y2="112.1875"/><ellipse cx="473.5" cy="125.8359" fill="#84BE84" rx="3" ry="3" style="stroke:#038048;stroke-width:1;"/><text fill="#000000" font-family="sans-serif" font-size="14" lengthAdjust="spacing" textLength="358.6338" x="482.5" y="129.1826">login(username: String, password: String): Boolean</text><ellipse cx="473.5" cy="142.1328" fill="#84BE84" rx="3" ry="3" style="stroke:#038048;stroke-width:1;"/><text fill="#000000" font-family="sans-serif" font-size="14" lengthAdjust="spacing" textLength="93.9873" x="482.5" y="145.4795">logout(): void</text><ellipse cx="473.5" cy="158.4297" fill="#84BE84" rx="3" ry="3" style="stroke:#038048;stroke-width:1;"/><text fill="#000000" font-family="sans-serif" font-size="14" lengthAdjust="spacing" textLength="178.8145" x="482.5" y="161.7764">resetPassword(): Boolean</text></g><!--class Admin--><g id="elem_Admin"><rect codeLine="11" fill="#F1F1F1" height="162.0781" id="Admin" rx="2.5" ry="2.5" style="stroke:#181818;stroke-width:0.5;" width="488.1025" x="7" y="230"/><ellipse cx="224.3691" cy="246" fill="#ADD1B2" rx="11" ry="11" style="stroke:#181818;stroke-width:1;"/><path d="M227.3379,251.6406 Q226.7598,251.9375 226.1191,252.0781 Q225.4785,252.2344 224.7754,252.2344 Q222.2754,252.2344 220.9473,250.5938 Q219.6348,248.9375 219.6348,245.8125 Q219.6348,242.6875 220.9473,241.0313 Q222.2754,239.375 224.7754,239.375 Q225.4785,239.375 226.1191,239.5313 Q226.7754,239.6875 227.3379,239.9844 L227.3379,242.7031 Q226.7129,242.125 226.1191,241.8594 Q225.5254,241.5781 224.9004,241.5781 Q223.5566,241.5781 222.8691,242.6563 Q222.1816,243.7188 222.1816,245.8125 Q222.1816,247.9063 222.8691,248.9844 Q223.5566,250.0469 224.9004,250.0469 Q225.5254,250.0469 226.1191,249.7813 Q226.7129,249.5 227.3379,248.9219 L227.3379,251.6406 Z " fill="#000000"/><text fill="#000000" font-family="sans-serif" font-size="14" lengthAdjust="spacing" textLength="44.8643" x="244.8691" y="250.8467">Admin</text><line style="stroke:#181818;stroke-width:0.5;" x1="8" x2="494.1025" y1="262" y2="262"/><line style="stroke:#181818;stroke-width:0.5;" x1="8" x2="494.1025" y1="270" y2="270"/><ellipse cx="18" cy="283.6484" fill="#84BE84" rx="3" ry="3" style="stroke:#038048;stroke-width:1;"/><text fill="#000000" font-family="sans-serif" font-size="14" lengthAdjust="spacing" textLength="361.457" x="27" y="286.9951">createTeacher(teacherData: TeacherDTO): Teacher</text><ellipse cx="18" cy="299.9453" fill="#84BE84" rx="3" ry="3" style="stroke:#038048;stroke-width:1;"/><text fill="#000000" font-family="sans-serif" font-size="14" lengthAdjust="spacing" textLength="208.8447" x="27" y="303.292">manageTeachers(): Teacher[]</text><ellipse cx="18" cy="316.2422" fill="#84BE84" rx="3" ry="3" style="stroke:#038048;stroke-width:1;"/><text fill="#000000" font-family="sans-serif" font-size="14" lengthAdjust="spacing" textLength="462.1025" x="27" y="319.5889">updateTeacher(teacherId: String, updates: TeacherDTO): Boolean</text><ellipse cx="18" cy="332.5391" fill="#84BE84" rx="3" ry="3" style="stroke:#038048;stroke-width:1;"/><text fill="#000000" font-family="sans-serif" font-size="14" lengthAdjust="spacing" textLength="325.1719" x="27" y="335.8857">deactivateTeacher(teacherId: String): Boolean</text><ellipse cx="18" cy="348.8359" fill="#84BE84" rx="3" ry="3" style="stroke:#038048;stroke-width:1;"/><text fill="#000000" font-family="sans-serif" font-size="14" lengthAdjust="spacing" textLength="177.7549" x="27" y="352.1826">manageClasses(): Class[]</text><ellipse cx="18" cy="365.1328" fill="#84BE84" rx="3" ry="3" style="stroke:#038048;stroke-width:1;"/><text fill="#000000" font-family="sans-serif" font-size="14" lengthAdjust="spacing" textLength="200.1494" x="27" y="368.4795">manageSubjects(): Subject[]</text><ellipse cx="18" cy="381.4297" fill="#84BE84" rx="3" ry="3" style="stroke:#038048;stroke-width:1;"/><text fill="#000000" font-family="sans-serif" font-size="14" lengthAdjust="spacing" textLength="205.7002" x="27" y="384.7764">manageStudents(): Student[]</text></g><!--class SuperAdmin--><g id="elem_SuperAdmin"><rect codeLine="21" fill="#F1F1F1" height="96.8906" id="SuperAdmin" rx="2.5" ry="2.5" style="stroke:#181818;stroke-width:0.5;" width="249.8906" x="530" y="262.5"/><ellipse cx="607.7554" cy="278.5" fill="#ADD1B2" rx="11" ry="11" style="stroke:#181818;stroke-width:1;"/><path d="M610.7241,284.1406 Q610.146,284.4375 609.5054,284.5781 Q608.8647,284.7344 608.1616,284.7344 Q605.6616,284.7344 604.3335,283.0938 Q603.021,281.4375 603.021,278.3125 Q603.021,275.1875 604.3335,273.5313 Q605.6616,271.875 608.1616,271.875 Q608.8647,271.875 609.5054,272.0313 Q610.1616,272.1875 610.7241,272.4844 L610.7241,275.2031 Q610.0991,274.625 609.5054,274.3594 Q608.9116,274.0781 608.2866,274.0781 Q606.9429,274.0781 606.2554,275.1563 Q605.5679,276.2188 605.5679,278.3125 Q605.5679,280.4063 606.2554,281.4844 Q606.9429,282.5469 608.2866,282.5469 Q608.9116,282.5469 609.5054,282.2813 Q610.0991,282 610.7241,281.4219 L610.7241,284.1406 Z " fill="#000000"/><text fill="#000000" font-family="sans-serif" font-size="14" lengthAdjust="spacing" textLength="85.8799" x="628.2554" y="283.3467">SuperAdmin</text><line style="stroke:#181818;stroke-width:0.5;" x1="531" x2="778.8906" y1="294.5" y2="294.5"/><line style="stroke:#181818;stroke-width:0.5;" x1="531" x2="778.8906" y1="302.5" y2="302.5"/><ellipse cx="541" cy="316.1484" fill="#84BE84" rx="3" ry="3" style="stroke:#038048;stroke-width:1;"/><text fill="#000000" font-family="sans-serif" font-size="14" lengthAdjust="spacing" textLength="223.8906" x="550" y="319.4951">monitorSystem(): SystemStatus</text><ellipse cx="541" cy="332.4453" fill="#84BE84" rx="3" ry="3" style="stroke:#038048;stroke-width:1;"/><text fill="#000000" font-family="sans-serif" font-size="14" lengthAdjust="spacing" textLength="194.6123" x="550" y="335.792">backupDatabase(): Boolean</text><ellipse cx="541" cy="348.7422" fill="#84BE84" rx="3" ry="3" style="stroke:#038048;stroke-width:1;"/><text fill="#000000" font-family="sans-serif" font-size="14" lengthAdjust="spacing" textLength="161.7793" x="550" y="352.0889">auditLogs(): LogEntry[]</text></g><!--class Teacher--><g id="elem_Teacher"><rect codeLine="27" fill="#F1F1F1" height="145.7813" id="Teacher" rx="2.5" ry="2.5" style="stroke:#181818;stroke-width:0.5;" width="327.8955" x="642" y="581"/><ellipse cx="773.356" cy="597" fill="#ADD1B2" rx="11" ry="11" style="stroke:#181818;stroke-width:1;"/><path d="M776.3247,602.6406 Q775.7466,602.9375 775.106,603.0781 Q774.4653,603.2344 773.7622,603.2344 Q771.2622,603.2344 769.9341,601.5938 Q768.6216,599.9375 768.6216,596.8125 Q768.6216,593.6875 769.9341,592.0313 Q771.2622,590.375 773.7622,590.375 Q774.4653,590.375 775.106,590.5313 Q775.7622,590.6875 776.3247,590.9844 L776.3247,593.7031 Q775.6997,593.125 775.106,592.8594 Q774.5122,592.5781 773.8872,592.5781 Q772.5435,592.5781 771.856,593.6563 Q771.1685,594.7188 771.1685,596.8125 Q771.1685,598.9063 771.856,599.9844 Q772.5435,601.0469 773.8872,601.0469 Q774.5122,601.0469 775.106,600.7813 Q775.6997,600.5 776.3247,599.9219 L776.3247,602.6406 Z " fill="#000000"/><text fill="#000000" font-family="sans-serif" font-size="14" lengthAdjust="spacing" textLength="56.6836" x="793.856" y="601.8467">Teacher</text><line style="stroke:#181818;stroke-width:0.5;" x1="643" x2="968.8955" y1="613" y2="613"/><ellipse cx="653" cy="626.6484" fill="transparent" rx="3" ry="3" style="stroke:#038048;stroke-width:1;"/><text fill="#000000" font-family="sans-serif" font-size="14" lengthAdjust="spacing" textLength="117.585" x="662" y="629.9951">teacherId: String</text><ellipse cx="653" cy="642.9453" fill="transparent" rx="3" ry="3" style="stroke:#038048;stroke-width:1;"/><text fill="#000000" font-family="sans-serif" font-size="14" lengthAdjust="spacing" textLength="146.4326" x="662" y="646.292">specialization: String</text><ellipse cx="653" cy="659.2422" fill="transparent" rx="3" ry="3" style="stroke:#038048;stroke-width:1;"/><text fill="#000000" font-family="sans-serif" font-size="14" lengthAdjust="spacing" textLength="103.2227" x="662" y="662.5889">hireDate: Date</text><ellipse cx="653" cy="675.5391" fill="transparent" rx="3" ry="3" style="stroke:#038048;stroke-width:1;"/><text fill="#000000" font-family="sans-serif" font-size="14" lengthAdjust="spacing" textLength="120.5928" x="662" y="678.8857">isActive: Boolean</text><line style="stroke:#181818;stroke-width:0.5;" x1="643" x2="968.8955" y1="686.1875" y2="686.1875"/><ellipse cx="653" cy="699.8359" fill="#84BE84" rx="3" ry="3" style="stroke:#038048;stroke-width:1;"/><text fill="#000000" font-family="sans-serif" font-size="14" lengthAdjust="spacing" textLength="282.0713" x="662" y="703.1826">createSeance(subjectId: String): Seance</text><ellipse cx="653" cy="716.1328" fill="#84BE84" rx="3" ry="3" style="stroke:#038048;stroke-width:1;"/><text fill="#000000" font-family="sans-serif" font-size="14" lengthAdjust="spacing" textLength="301.8955" x="662" y="719.4795">takeAttendance(seanceId: String): Boolean</text></g><!--class Class--><g id="elem_Class"><rect codeLine="36" fill="#F1F1F1" height="129.4844" id="Class" rx="2.5" ry="2.5" style="stroke:#181818;stroke-width:0.5;" width="302.042" x="952" y="23.5"/><ellipse cx="1080.355" cy="39.5" fill="#ADD1B2" rx="11" ry="11" style="stroke:#181818;stroke-width:1;"/><path d="M1083.3237,45.1406 Q1082.7456,45.4375 1082.105,45.5781 Q1081.4644,45.7344 1080.7612,45.7344 Q1078.2612,45.7344 1076.9331,44.0938 Q1075.6206,42.4375 1075.6206,39.3125 Q1075.6206,36.1875 1076.9331,34.5313 Q1078.2612,32.875 1080.7612,32.875 Q1081.4644,32.875 1082.105,33.0313 Q1082.7612,33.1875 1083.3237,33.4844 L1083.3237,36.2031 Q1082.6987,35.625 1082.105,35.3594 Q1081.5112,35.0781 1080.8862,35.0781 Q1079.5425,35.0781 1078.855,36.1563 Q1078.1675,37.2188 1078.1675,39.3125 Q1078.1675,41.4063 1078.855,42.4844 Q1079.5425,43.5469 1080.8862,43.5469 Q1081.5112,43.5469 1082.105,43.2813 Q1082.6987,43 1083.3237,42.4219 L1083.3237,45.1406 Z " fill="#000000"/><text fill="#000000" font-family="sans-serif" font-size="14" lengthAdjust="spacing" textLength="36.832" x="1100.855" y="44.3467">Class</text><line style="stroke:#181818;stroke-width:0.5;" x1="953" x2="1253.042" y1="55.5" y2="55.5"/><ellipse cx="963" cy="69.1484" fill="transparent" rx="3" ry="3" style="stroke:#038048;stroke-width:1;"/><text fill="#000000" font-family="sans-serif" font-size="14" lengthAdjust="spacing" textLength="98.7178" x="972" y="72.4951">classId: String</text><ellipse cx="963" cy="85.4453" fill="transparent" rx="3" ry="3" style="stroke:#038048;stroke-width:1;"/><text fill="#000000" font-family="sans-serif" font-size="14" lengthAdjust="spacing" textLength="127.0049" x="972" y="88.792">className: String</text><ellipse cx="963" cy="101.7422" fill="transparent" rx="3" ry="3" style="stroke:#038048;stroke-width:1;"/><text fill="#000000" font-family="sans-serif" font-size="14" lengthAdjust="spacing" textLength="150.0283" x="972" y="105.0889">academicYear: String</text><line style="stroke:#181818;stroke-width:0.5;" x1="953" x2="1253.042" y1="112.3906" y2="112.3906"/><ellipse cx="963" cy="126.0391" fill="#84BE84" rx="3" ry="3" style="stroke:#038048;stroke-width:1;"/><text fill="#000000" font-family="sans-serif" font-size="14" lengthAdjust="spacing" textLength="171.5205" x="972" y="129.3857">getStudents(): Student[]</text><ellipse cx="963" cy="142.3359" fill="#84BE84" rx="3" ry="3" style="stroke:#038048;stroke-width:1;"/><text fill="#000000" font-family="sans-serif" font-size="14" lengthAdjust="spacing" textLength="276.042" x="972" y="145.6826">addStudent(student: Student): Boolean</text></g><!--class Subject--><g id="elem_Subject"><rect codeLine="44" fill="#F1F1F1" height="129.4844" id="Subject" rx="2.5" ry="2.5" style="stroke:#181818;stroke-width:0.5;" width="200.665" x="917.5" y="246.5"/><ellipse cx="987.4146" cy="262.5" fill="#ADD1B2" rx="11" ry="11" style="stroke:#181818;stroke-width:1;"/><path d="M990.3833,268.1406 Q989.8052,268.4375 989.1646,268.5781 Q988.5239,268.7344 987.8208,268.7344 Q985.3208,268.7344 983.9927,267.0938 Q982.6802,265.4375 982.6802,262.3125 Q982.6802,259.1875 983.9927,257.5313 Q985.3208,255.875 987.8208,255.875 Q988.5239,255.875 989.1646,256.0313 Q989.8208,256.1875 990.3833,256.4844 L990.3833,259.2031 Q989.7583,258.625 989.1646,258.3594 Q988.5708,258.0781 987.9458,258.0781 Q986.6021,258.0781 985.9146,259.1563 Q985.2271,260.2188 985.2271,262.3125 Q985.2271,264.4063 985.9146,265.4844 Q986.6021,266.5469 987.9458,266.5469 Q988.5708,266.5469 989.1646,266.2813 Q989.7583,266 990.3833,265.4219 L990.3833,268.1406 Z " fill="#000000"/><text fill="#000000" font-family="sans-serif" font-size="14" lengthAdjust="spacing" textLength="52.3359" x="1007.9146" y="267.3467">Subject</text><line style="stroke:#181818;stroke-width:0.5;" x1="918.5" x2="1117.165" y1="278.5" y2="278.5"/><ellipse cx="928.5" cy="292.1484" fill="transparent" rx="3" ry="3" style="stroke:#038048;stroke-width:1;"/><text fill="#000000" font-family="sans-serif" font-size="14" lengthAdjust="spacing" textLength="114.707" x="937.5" y="295.4951">subjectId: String</text><ellipse cx="928.5" cy="308.4453" fill="transparent" rx="3" ry="3" style="stroke:#038048;stroke-width:1;"/><text fill="#000000" font-family="sans-serif" font-size="14" lengthAdjust="spacing" textLength="142.9941" x="937.5" y="311.792">subjectName: String</text><ellipse cx="928.5" cy="324.7422" fill="transparent" rx="3" ry="3" style="stroke:#038048;stroke-width:1;"/><text fill="#000000" font-family="sans-serif" font-size="14" lengthAdjust="spacing" textLength="140.875" x="937.5" y="328.0889">creditHours: Integer</text><line style="stroke:#181818;stroke-width:0.5;" x1="918.5" x2="1117.165" y1="335.3906" y2="335.3906"/><ellipse cx="928.5" cy="349.0391" fill="#84BE84" rx="3" ry="3" style="stroke:#038048;stroke-width:1;"/><text fill="#000000" font-family="sans-serif" font-size="14" lengthAdjust="spacing" textLength="174.665" x="937.5" y="352.3857">getTeachers(): Teacher[]</text><ellipse cx="928.5" cy="365.3359" fill="#84BE84" rx="3" ry="3" style="stroke:#038048;stroke-width:1;"/><text fill="#000000" font-family="sans-serif" font-size="14" lengthAdjust="spacing" textLength="163.8232" x="937.5" y="368.6826">getSeances(): Seance[]</text></g><!--class Student--><g id="elem_Student"><rect codeLine="52" fill="#F1F1F1" height="129.4844" id="Student" rx="2.5" ry="2.5" style="stroke:#181818;stroke-width:0.5;" width="241.3867" x="1051.5" y="422"/><ellipse cx="1140.3877" cy="438" fill="#ADD1B2" rx="11" ry="11" style="stroke:#181818;stroke-width:1;"/><path d="M1143.3564,443.6406 Q1142.7783,443.9375 1142.1377,444.0781 Q1141.4971,444.2344 1140.7939,444.2344 Q1138.2939,444.2344 1136.9658,442.5938 Q1135.6533,440.9375 1135.6533,437.8125 Q1135.6533,434.6875 1136.9658,433.0313 Q1138.2939,431.375 1140.7939,431.375 Q1141.4971,431.375 1142.1377,431.5313 Q1142.7939,431.6875 1143.3564,431.9844 L1143.3564,434.7031 Q1142.7314,434.125 1142.1377,433.8594 Q1141.5439,433.5781 1140.9189,433.5781 Q1139.5752,433.5781 1138.8877,434.6563 Q1138.2002,435.7188 1138.2002,437.8125 Q1138.2002,439.9063 1138.8877,440.9844 Q1139.5752,442.0469 1140.9189,442.0469 Q1141.5439,442.0469 1142.1377,441.7813 Q1142.7314,441.5 1143.3564,440.9219 L1143.3564,443.6406 Z " fill="#000000"/><text fill="#000000" font-family="sans-serif" font-size="14" lengthAdjust="spacing" textLength="55.1113" x="1160.8877" y="442.8467">Student</text><line style="stroke:#181818;stroke-width:0.5;" x1="1052.5" x2="1291.8867" y1="454" y2="454"/><ellipse cx="1062.5" cy="467.6484" fill="transparent" rx="3" ry="3" style="stroke:#038048;stroke-width:1;"/><text fill="#000000" font-family="sans-serif" font-size="14" lengthAdjust="spacing" textLength="117.4824" x="1071.5" y="470.9951">studentId: String</text><ellipse cx="1062.5" cy="483.9453" fill="transparent" rx="3" ry="3" style="stroke:#038048;stroke-width:1;"/><text fill="#000000" font-family="sans-serif" font-size="14" lengthAdjust="spacing" textLength="119.6084" x="1071.5" y="487.292">firstName: String</text><ellipse cx="1062.5" cy="500.2422" fill="transparent" rx="3" ry="3" style="stroke:#038048;stroke-width:1;"/><text fill="#000000" font-family="sans-serif" font-size="14" lengthAdjust="spacing" textLength="117.5029" x="1071.5" y="503.5889">lastName: String</text><ellipse cx="1062.5" cy="516.5391" fill="transparent" rx="3" ry="3" style="stroke:#038048;stroke-width:1;"/><text fill="#000000" font-family="sans-serif" font-size="14" lengthAdjust="spacing" textLength="152.291" x="1071.5" y="519.8857">enrollmentDate: Date</text><line style="stroke:#181818;stroke-width:0.5;" x1="1052.5" x2="1291.8867" y1="527.1875" y2="527.1875"/><ellipse cx="1062.5" cy="540.8359" fill="#84BE84" rx="3" ry="3" style="stroke:#038048;stroke-width:1;"/><text fill="#000000" font-family="sans-serif" font-size="14" lengthAdjust="spacing" textLength="215.3867" x="1071.5" y="544.1826">getAttendance(): Attendance[]</text></g><!--class Seance--><g id="elem_Seance"><rect codeLine="60" fill="#F1F1F1" height="162.0781" id="Seance" rx="2.5" ry="2.5" style="stroke:#181818;stroke-width:0.5;" width="241.3867" x="877.5" y="788"/><ellipse cx="968.312" cy="804" fill="#ADD1B2" rx="11" ry="11" style="stroke:#181818;stroke-width:1;"/><path d="M971.2808,809.6406 Q970.7026,809.9375 970.062,810.0781 Q969.4214,810.2344 968.7183,810.2344 Q966.2183,810.2344 964.8901,808.5938 Q963.5776,806.9375 963.5776,803.8125 Q963.5776,800.6875 964.8901,799.0313 Q966.2183,797.375 968.7183,797.375 Q969.4214,797.375 970.062,797.5313 Q970.7183,797.6875 971.2808,797.9844 L971.2808,800.7031 Q970.6558,800.125 970.062,799.8594 Q969.4683,799.5781 968.8433,799.5781 Q967.4995,799.5781 966.812,800.6563 Q966.1245,801.7188 966.1245,803.8125 Q966.1245,805.9063 966.812,806.9844 Q967.4995,808.0469 968.8433,808.0469 Q969.4683,808.0469 970.062,807.7813 Q970.6558,807.5 971.2808,806.9219 L971.2808,809.6406 Z " fill="#000000"/><text fill="#000000" font-family="sans-serif" font-size="14" lengthAdjust="spacing" textLength="51.2627" x="988.812" y="808.8467">Seance</text><line style="stroke:#181818;stroke-width:0.5;" x1="878.5" x2="1117.8867" y1="820" y2="820"/><ellipse cx="888.5" cy="833.6484" fill="transparent" rx="3" ry="3" style="stroke:#038048;stroke-width:1;"/><text fill="#000000" font-family="sans-serif" font-size="14" lengthAdjust="spacing" textLength="113.6338" x="897.5" y="836.9951">seanceId: String</text><ellipse cx="888.5" cy="849.9453" fill="transparent" rx="3" ry="3" style="stroke:#038048;stroke-width:1;"/><text fill="#000000" font-family="sans-serif" font-size="14" lengthAdjust="spacing" textLength="74.1973" x="897.5" y="853.292">date: Date</text><ellipse cx="888.5" cy="866.2422" fill="transparent" rx="3" ry="3" style="stroke:#038048;stroke-width:1;"/><text fill="#000000" font-family="sans-serif" font-size="14" lengthAdjust="spacing" textLength="106.4971" x="897.5" y="869.5889">location: String</text><ellipse cx="888.5" cy="882.5391" fill="transparent" rx="3" ry="3" style="stroke:#038048;stroke-width:1;"/><text fill="#000000" font-family="sans-serif" font-size="14" lengthAdjust="spacing" textLength="111.1592" x="897.5" y="885.8857">startTime: Time</text><ellipse cx="888.5" cy="898.8359" fill="transparent" rx="3" ry="3" style="stroke:#038048;stroke-width:1;"/><text fill="#000000" font-family="sans-serif" font-size="14" lengthAdjust="spacing" textLength="148.0596" x="897.5" y="902.1826">status: SeanceStatus</text><line style="stroke:#181818;stroke-width:0.5;" x1="878.5" x2="1117.8867" y1="909.4844" y2="909.4844"/><ellipse cx="888.5" cy="923.1328" fill="#84BE84" rx="3" ry="3" style="stroke:#038048;stroke-width:1;"/><text fill="#000000" font-family="sans-serif" font-size="14" lengthAdjust="spacing" textLength="122.1309" x="897.5" y="926.4795">cancel(): Boolean</text><ellipse cx="888.5" cy="939.4297" fill="#84BE84" rx="3" ry="3" style="stroke:#038048;stroke-width:1;"/><text fill="#000000" font-family="sans-serif" font-size="14" lengthAdjust="spacing" textLength="215.3867" x="897.5" y="942.7764">getAttendance(): Attendance[]</text></g><!--class Attendance--><g id="elem_Attendance"><rect codeLine="70" fill="#F1F1F1" height="113.1875" id="Attendance" rx="2.5" ry="2.5" style="stroke:#181818;stroke-width:0.5;" width="203.4883" x="1070.5" y="1027"/><ellipse cx="1127.6484" cy="1043" fill="#ADD1B2" rx="11" ry="11" style="stroke:#181818;stroke-width:1;"/><path d="M1130.6172,1048.6406 Q1130.0391,1048.9375 1129.3984,1049.0781 Q1128.7578,1049.2344 1128.0547,1049.2344 Q1125.5547,1049.2344 1124.2266,1047.5938 Q1122.9141,1045.9375 1122.9141,1042.8125 Q1122.9141,1039.6875 1124.2266,1038.0313 Q1125.5547,1036.375 1128.0547,1036.375 Q1128.7578,1036.375 1129.3984,1036.5313 Q1130.0547,1036.6875 1130.6172,1036.9844 L1130.6172,1039.7031 Q1129.9922,1039.125 1129.3984,1038.8594 Q1128.8047,1038.5781 1128.1797,1038.5781 Q1126.8359,1038.5781 1126.1484,1039.6563 Q1125.4609,1040.7188 1125.4609,1042.8125 Q1125.4609,1044.9063 1126.1484,1045.9844 Q1126.8359,1047.0469 1128.1797,1047.0469 Q1128.8047,1047.0469 1129.3984,1046.7813 Q1129.9922,1046.5 1130.6172,1045.9219 L1130.6172,1048.6406 Z " fill="#000000"/><text fill="#000000" font-family="sans-serif" font-size="14" lengthAdjust="spacing" textLength="80.6914" x="1148.1484" y="1047.8467">Attendance</text><line style="stroke:#181818;stroke-width:0.5;" x1="1071.5" x2="1272.9883" y1="1059" y2="1059"/><ellipse cx="1081.5" cy="1072.6484" fill="transparent" rx="3" ry="3" style="stroke:#038048;stroke-width:1;"/><text fill="#000000" font-family="sans-serif" font-size="14" lengthAdjust="spacing" textLength="143.6572" x="1090.5" y="1075.9951">attendanceId: String</text><ellipse cx="1081.5" cy="1088.9453" fill="transparent" rx="3" ry="3" style="stroke:#038048;stroke-width:1;"/><text fill="#000000" font-family="sans-serif" font-size="14" lengthAdjust="spacing" textLength="177.4883" x="1090.5" y="1092.292">status: AttendanceStatus</text><ellipse cx="1081.5" cy="1105.2422" fill="transparent" rx="3" ry="3" style="stroke:#038048;stroke-width:1;"/><text fill="#000000" font-family="sans-serif" font-size="14" lengthAdjust="spacing" textLength="152.8379" x="1090.5" y="1108.5889">timestamp: DateTime</text><line style="stroke:#181818;stroke-width:0.5;" x1="1071.5" x2="1272.9883" y1="1115.8906" y2="1115.8906"/><ellipse cx="1081.5" cy="1129.5391" fill="#84BE84" rx="3" ry="3" style="stroke:#038048;stroke-width:1;"/><text fill="#000000" font-family="sans-serif" font-size="14" lengthAdjust="spacing" textLength="170.7207" x="1090.5" y="1132.8857">updateStatus(): Boolean</text></g><!--class Camera--><g id="elem_Camera"><rect codeLine="77" fill="#F1F1F1" height="129.4844" id="Camera" rx="2.5" ry="2.5" style="stroke:#181818;stroke-width:0.5;" width="228.7471" x="1225.5" y="804.5"/><ellipse cx="1308.1533" cy="820.5" fill="#ADD1B2" rx="11" ry="11" style="stroke:#181818;stroke-width:1;"/><path d="M1311.1221,826.1406 Q1310.5439,826.4375 1309.9033,826.5781 Q1309.2627,826.7344 1308.5596,826.7344 Q1306.0596,826.7344 1304.7314,825.0938 Q1303.4189,823.4375 1303.4189,820.3125 Q1303.4189,817.1875 1304.7314,815.5313 Q1306.0596,813.875 1308.5596,813.875 Q1309.2627,813.875 1309.9033,814.0313 Q1310.5596,814.1875 1311.1221,814.4844 L1311.1221,817.2031 Q1310.4971,816.625 1309.9033,816.3594 Q1309.3096,816.0781 1308.6846,816.0781 Q1307.3408,816.0781 1306.6533,817.1563 Q1305.9658,818.2188 1305.9658,820.3125 Q1305.9658,822.4063 1306.6533,823.4844 Q1307.3408,824.5469 1308.6846,824.5469 Q1309.3096,824.5469 1309.9033,824.2813 Q1310.4971,824 1311.1221,823.4219 L1311.1221,826.1406 Z " fill="#000000"/><text fill="#000000" font-family="sans-serif" font-size="14" lengthAdjust="spacing" textLength="54.9404" x="1328.6533" y="825.3467">Camera</text><line style="stroke:#181818;stroke-width:0.5;" x1="1226.5" x2="1453.2471" y1="836.5" y2="836.5"/><ellipse cx="1236.5" cy="850.1484" fill="transparent" rx="3" ry="3" style="stroke:#038048;stroke-width:1;"/><text fill="#000000" font-family="sans-serif" font-size="14" lengthAdjust="spacing" textLength="116.8262" x="1245.5" y="853.4951">cameraId: String</text><ellipse cx="1236.5" cy="866.4453" fill="transparent" rx="3" ry="3" style="stroke:#038048;stroke-width:1;"/><text fill="#000000" font-family="sans-serif" font-size="14" lengthAdjust="spacing" textLength="106.4971" x="1245.5" y="869.792">location: String</text><line style="stroke:#181818;stroke-width:0.5;" x1="1226.5" x2="1453.2471" y1="877.0938" y2="877.0938"/><ellipse cx="1236.5" cy="890.7422" fill="#84BE84" rx="3" ry="3" style="stroke:#038048;stroke-width:1;"/><text fill="#000000" font-family="sans-serif" font-size="14" lengthAdjust="spacing" textLength="161.6768" x="1245.5" y="894.0889">captureImage(): Image</text><ellipse cx="1236.5" cy="907.0391" fill="#84BE84" rx="3" ry="3" style="stroke:#038048;stroke-width:1;"/><text fill="#000000" font-family="sans-serif" font-size="14" lengthAdjust="spacing" textLength="196.9365" x="1245.5" y="910.3857">recognizeFace(): FaceMatch</text><ellipse cx="1236.5" cy="923.3359" fill="#84BE84" rx="3" ry="3" style="stroke:#038048;stroke-width:1;"/><text fill="#000000" font-family="sans-serif" font-size="14" lengthAdjust="spacing" textLength="202.7471" x="1245.5" y="926.6826">recordAttendance(): Boolean</text></g><!--class AttendanceStatus--><g id="elem_AttendanceStatus"><rect codeLine="104" fill="#F1F1F1" height="113.1875" id="AttendanceStatus" rx="2.5" ry="2.5" style="stroke:#181818;stroke-width:0.5;" width="157.3027" x="1289.5" y="31.5"/><ellipse cx="1304.5" cy="47.5" fill="#EB937F" rx="11" ry="11" style="stroke:#181818;stroke-width:1;"/><path d="M1308.6094,53.5 L1300.8906,53.5 L1300.8906,41.1094 L1308.6094,41.1094 L1308.6094,43.2656 L1303.3438,43.2656 L1303.3438,45.9375 L1308.1094,45.9375 L1308.1094,48.0938 L1303.3438,48.0938 L1303.3438,51.3438 L1308.6094,51.3438 L1308.6094,53.5 Z " fill="#000000"/><text fill="#000000" font-family="sans-serif" font-size="14" lengthAdjust="spacing" textLength="125.3027" x="1318.5" y="52.3467">AttendanceStatus</text><line style="stroke:#181818;stroke-width:0.5;" x1="1290.5" x2="1445.8027" y1="63.5" y2="63.5"/><text fill="#000000" font-family="sans-serif" font-size="14" lengthAdjust="spacing" textLength="63.7725" x="1295.5" y="80.4951">PRESENT</text><text fill="#000000" font-family="sans-serif" font-size="14" lengthAdjust="spacing" textLength="55.9385" x="1295.5" y="96.792">ABSENT</text><text fill="#000000" font-family="sans-serif" font-size="14" lengthAdjust="spacing" textLength="34.7744" x="1295.5" y="113.0889">LATE</text><text fill="#000000" font-family="sans-serif" font-size="14" lengthAdjust="spacing" textLength="66.9717" x="1295.5" y="129.3857">EXCUSED</text><line style="stroke:#181818;stroke-width:0.5;" x1="1290.5" x2="1445.8027" y1="136.6875" y2="136.6875"/></g><!--class SeanceStatus--><g id="elem_SeanceStatus"><rect codeLine="111" fill="#F1F1F1" height="113.1875" id="SeanceStatus" rx="2.5" ry="2.5" style="stroke:#181818;stroke-width:0.5;" width="127.874" x="1482" y="31.5"/><ellipse cx="1497" cy="47.5" fill="#EB937F" rx="11" ry="11" style="stroke:#181818;stroke-width:1;"/><path d="M1501.1094,53.5 L1493.3906,53.5 L1493.3906,41.1094 L1501.1094,41.1094 L1501.1094,43.2656 L1495.8438,43.2656 L1495.8438,45.9375 L1500.6094,45.9375 L1500.6094,48.0938 L1495.8438,48.0938 L1495.8438,51.3438 L1501.1094,51.3438 L1501.1094,53.5 Z " fill="#000000"/><text fill="#000000" font-family="sans-serif" font-size="14" lengthAdjust="spacing" textLength="95.874" x="1511" y="52.3467">SeanceStatus</text><line style="stroke:#181818;stroke-width:0.5;" x1="1483" x2="1608.874" y1="63.5" y2="63.5"/><text fill="#000000" font-family="sans-serif" font-size="14" lengthAdjust="spacing" textLength="86.4883" x="1488" y="80.4951">SCHEDULED</text><text fill="#000000" font-family="sans-serif" font-size="14" lengthAdjust="spacing" textLength="86.1396" x="1488" y="96.792">COMPLETED</text><text fill="#000000" font-family="sans-serif" font-size="14" lengthAdjust="spacing" textLength="83.6719" x="1488" y="113.0889">CANCELLED</text><text fill="#000000" font-family="sans-serif" font-size="14" lengthAdjust="spacing" textLength="97.9863" x="1488" y="129.3857">IN_PROGRESS</text><line style="stroke:#181818;stroke-width:0.5;" x1="1483" x2="1608.874" y1="136.6875" y2="136.6875"/></g><!--reverse link User to Admin--><g id="link_User_Admin"><path codeLine="86" d="M492.7865,177.7352 C456.5365,197.5552 433.5,210.17 397.26,229.99 " fill="transparent" id="User-backto-Admin" style="stroke:#181818;stroke-width:1;"/><polygon fill="transparent" points="508.58,169.1,489.9081,172.4707,495.6649,182.9997,508.58,169.1" style="stroke:#181818;stroke-width:1;"/></g><!--reverse link User to SuperAdmin--><g id="link_User_SuperAdmin"><path codeLine="87" d="M655,187.1 C655,218.35 655,235.12 655,262.3 " fill="transparent" id="User-backto-SuperAdmin" style="stroke:#181818;stroke-width:1;"/><polygon fill="transparent" points="655,169.1,649,187.1,661,187.1,655,169.1" style="stroke:#181818;stroke-width:1;"/></g><!--reverse link User to Teacher--><g id="link_User_Teacher"><path codeLine="88" d="M768.2578,182.431 C784.7978,200.571 787.48,207.81 797,230 C846.21,344.77 834.03,493.64 820.3,580.72 " fill="transparent" id="User-backto-Teacher" style="stroke:#181818;stroke-width:1;"/><polygon fill="transparent" points="756.13,169.13,763.8241,186.4736,772.6915,178.3884,756.13,169.13" style="stroke:#181818;stroke-width:1;"/></g><!--link Admin to Teacher--><g id="link_Admin_Teacher"><path codeLine="91" d="M381.47,392.16 C474.56,449.36 593.5679,522.479 683.5379,577.759 " fill="transparent" id="Admin-to-Teacher" style="stroke:#181818;stroke-width:1;"/><polygon fill="#181818" points="688.65,580.9,683.0758,572.7804,684.3899,578.2825,678.8878,579.5965,688.65,580.9" style="stroke:#181818;stroke-width:1;"/><text fill="#000000" font-family="sans-serif" font-size="13" lengthAdjust="spacing" textLength="64.2319" x="628" y="491.0669">&#171;creates&#187;</text><text fill="#000000" font-family="sans-serif" font-size="13" lengthAdjust="spacing" textLength="8.271" x="384.7412" y="412.1256">1</text><text fill="#000000" font-family="sans-serif" font-size="13" lengthAdjust="spacing" textLength="23.0356" x="652.9732" y="570.0501">0..*</text></g><!--reverse link Class to Subject--><g id="link_Class_Subject"><path codeLine="94" d="M1074.2212,163.8298 C1062.8912,193.2798 1053.77,216.99 1042.45,246.44 " fill="transparent" id="Class-backto-Subject" style="stroke:#181818;stroke-width:1;"/><polygon fill="#181818" points="1078.53,152.63,1072.6424,156.7936,1074.2212,163.8298,1080.1089,159.6661,1078.53,152.63" style="stroke:#181818;stroke-width:1;"/><text fill="#000000" font-family="sans-serif" font-size="13" lengthAdjust="spacing" textLength="8.271" x="1067.2514" y="173.0166">1</text><text fill="#000000" font-family="sans-serif" font-size="13" lengthAdjust="spacing" textLength="23.0356" x="1020.8867" y="235.6061">0..*</text></g><!--link Subject to Teacher--><g id="link_Subject_Teacher"><path codeLine="95" d="M978.37,375.74 C942.18,433.96 888.71,519.96 850.94,580.71 " fill="transparent" id="Subject-Teacher" style="stroke:#181818;stroke-width:1;"/><text fill="#000000" font-family="sans-serif" font-size="13" lengthAdjust="spacing" textLength="23.0356" x="949.4795" y="396.1393">0..*</text><text fill="#000000" font-family="sans-serif" font-size="13" lengthAdjust="spacing" textLength="23.0356" x="831.2386" y="569.8414">1..*</text></g><!--reverse link Class to Student--><g id="link_Class_Student"><path codeLine="96" d="M1121.9745,164.2877 C1127.7745,188.4177 1131.24,204.55 1136,230 C1148.17,295.06 1158.28,370.13 1164.66,421.98 " fill="transparent" id="Class-backto-Student" style="stroke:#181818;stroke-width:1;"/><polygon fill="#181818" points="1119.17,152.62,1116.683,159.3887,1121.9745,164.2877,1124.4615,157.519,1119.17,152.62" style="stroke:#181818;stroke-width:1;"/><text fill="#000000" font-family="sans-serif" font-size="13" lengthAdjust="spacing" textLength="8.271" x="1112.5904" y="173.0054">1</text><text fill="#000000" font-family="sans-serif" font-size="13" lengthAdjust="spacing" textLength="23.0356" x="1139.5802" y="411.1505">0..*</text></g><!--reverse link Subject to Seance--><g id="link_Subject_Seance"><path codeLine="97" d="M1015.2885,387.5022 C1011.6285,489.2222 1004.89,676.54 1000.88,787.89 " fill="transparent" id="Subject-backto-Seance" style="stroke:#181818;stroke-width:1;"/><polygon fill="#181818" points="1015.72,375.51,1011.5068,381.3623,1015.2885,387.5022,1019.5017,381.65,1015.72,375.51" style="stroke:#181818;stroke-width:1;"/><text fill="#000000" font-family="sans-serif" font-size="13" lengthAdjust="spacing" textLength="8.271" x="1007.0289" y="395.8827">1</text><text fill="#000000" font-family="sans-serif" font-size="13" lengthAdjust="spacing" textLength="23.0356" x="977.0966" y="777.0675">0..*</text></g><!--link Teacher to Seance--><g id="link_Teacher_Seance"><path codeLine="98" d="M871,727.11 C888.63,746.66 907.81,767.95 925.81,787.91 " fill="transparent" id="Teacher-Seance" style="stroke:#181818;stroke-width:1;"/><text fill="#000000" font-family="sans-serif" font-size="13" lengthAdjust="spacing" textLength="8.271" x="868.832" y="746.8768">1</text><text fill="#000000" font-family="sans-serif" font-size="13" lengthAdjust="spacing" textLength="23.0356" x="895.0786" y="776.8125">0..*</text></g><!--reverse link Seance to Attendance--><g id="link_Seance_Attendance"><path codeLine="99" d="M1071.134,959.3133 C1092.144,984.9633 1107.32,1003.5 1126.55,1027 " fill="transparent" id="Seance-backto-Attendance" style="stroke:#181818;stroke-width:1;"/><polygon fill="#181818" points="1063.53,950.03,1064.2376,957.2063,1071.134,959.3133,1070.4264,952.137,1063.53,950.03" style="stroke:#181818;stroke-width:1;"/><text fill="#000000" font-family="sans-serif" font-size="13" lengthAdjust="spacing" textLength="8.271" x="1061.197" y="970.2608">1</text><text fill="#000000" font-family="sans-serif" font-size="13" lengthAdjust="spacing" textLength="23.0356" x="1096.2243" y="1015.8634">0..*</text></g><!--link Student to Attendance--><g id="link_Student_Attendance"><path codeLine="100" d="M1172,551.18 C1172,668.24 1172,915.81 1172,1026.72 " fill="transparent" id="Student-Attendance" style="stroke:#181818;stroke-width:1;"/><text fill="#000000" font-family="sans-serif" font-size="13" lengthAdjust="spacing" textLength="8.271" x="1163.5308" y="571.5724">1</text><text fill="#000000" font-family="sans-serif" font-size="13" lengthAdjust="spacing" textLength="23.0356" x="1147.5709" y="1015.9494">0..*</text></g><!--link Camera to Attendance--><g id="link_Camera_Attendance"><path codeLine="101" d="M1289.59,933.76 C1266.2,963.34 1238.65,998.19 1216.1,1026.72 " fill="transparent" id="Camera-Attendance" style="stroke:#181818;stroke-width:1;"/><text fill="#000000" font-family="sans-serif" font-size="13" lengthAdjust="spacing" textLength="64.7207" x="1251" y="993.0669">&#171;records&#187;</text><text fill="#000000" font-family="sans-serif" font-size="13" lengthAdjust="spacing" textLength="8.271" x="1275.3291" y="954.1616">1</text><text fill="#000000" font-family="sans-serif" font-size="13" lengthAdjust="spacing" textLength="23.0356" x="1197.0455" y="1015.9494">0..*</text></g><!--SRC=[ZLNTRzCm47_FNn6L1yAs3lPQJPEwDh1ANLSjdGH227d9qPebSMGxGnliV-TyTXedwH0lyVc-_BlFf3bJAhnJ8CFVGHY-2Mia5zaaJBJavPPO9IkWmu22yRp3gT3BBo5zk-Cm5rjUHiQXx-5aeFnk4buAaGCh6pDHwmYvZu9dn9AWGA-TMUJflmH1IX5CiuAN5C9nc4fW6ZR0qXt8IDjppZIRX8uvtzoysr_8fc0bspOsAcgbNx-HlAwoeSysJoTEGVMUyEFAKA3vux_Sz2mig9a940WJaGwH5IRr_Kz8DKaTtPNhEeFIoIsDydtQahe2wUUk42NNGYPFIaD1HaGbckbQaSOzIn_gogJpdYc8Uf1PdN6z55jw4C-urFB9Vz75xfuRP82ugeAKivm_Cyr5sH7jk0Hy6xl9V8d5rTJa5Rf0R1CaU4qXKZOpdKHRaKN17c2gDPIPrIR9mQhimw1ADFrcw5u8n5jr1mUpax8C2fv-0IOxWYtemvKYgonpZ4ZPSwzn29fh0mTk4BhF7G34h67zhaGjiPCNfOQjcmy4-Ffm6FIKCmkUo4wNMR0D8dlh8Vh1fHhYGVCX4qefyhn07xrEG1nU6H5AU-l08O0DcbwnxQXs_UOY7NQYqapg3JVOpBVXuPWqAV269ZNtl3yi_uctvJhCRC_ebzMztrfu63IYH8MYif7jGTlDPHKFxjOP5a2ofjdfikXl-WC9IbcbQmcB0jUGyKk4M-Ufs9Ry6Juo6xSvhvbETtknpBgPyK2znSR4tkEQCd8BEJsjThnI0Vt8pl-Cn_Q7uDtRJUSncpy0-foPVO5-EWu3knf7PwDmFBu8HnzEJuz6-nKs2S_FxPfH5nVaGnILKDnOlvyg9N293LogmAuEu_C88JYVRcY3PdWTsoYS-O- -Ocr7ghNkYUsgQt3RS7f2DnGzoxO8GJF4NMjFmRN9Qt9AbosjIrTSriQ2CXC0NWPzIpstlesJUBL1QdhfYELq4-CHVvxT9V7SD0MP-sD7fidiAfxVBL4b36Str-jblB7qT3MBbvQ_M7rVtzvymaUIuEKl]--></g></svg>