<svg xmlns="http://www.w3.org/2000/svg" xmlns:xlink="http://www.w3.org/1999/xlink" contentStyleType="text/css" height="937px" preserveAspectRatio="none" style="width:1481px;height:937px;background:#FFFFFF;" version="1.1" viewBox="0 0 1481 937" width="1481px" zoomAndPan="magnify"><defs/><g><line style="stroke:#181818;stroke-width:0.5;stroke-dasharray:5.0,5.0;" x1="27" x2="27" y1="83.6211" y2="854.6055"/><line style="stroke:#181818;stroke-width:0.5;stroke-dasharray:5.0,5.0;" x1="603.2451" x2="603.2451" y1="83.6211" y2="854.6055"/><line style="stroke:#181818;stroke-width:0.5;stroke-dasharray:5.0,5.0;" x1="1179.8623" x2="1179.8623" y1="83.6211" y2="854.6055"/><line style="stroke:#181818;stroke-width:0.5;stroke-dasharray:5.0,5.0;" x1="1402.4141" x2="1402.4141" y1="83.6211" y2="854.6055"/><text fill="#000000" font-family="sans-serif" font-size="14" lengthAdjust="spacing" textLength="39.6826" x="5" y="80.1074">Admin</text><ellipse cx="27.8413" cy="13.5" fill="#E2E2F0" rx="8" ry="8" style="stroke:#181818;stroke-width:0.5;"/><path d="M27.8413,21.5 L27.8413,48.5 M14.8413,29.5 L40.8413,29.5 M27.8413,48.5 L14.8413,63.5 M27.8413,48.5 L40.8413,63.5 " fill="none" style="stroke:#181818;stroke-width:0.5;"/><text fill="#000000" font-family="sans-serif" font-size="14" lengthAdjust="spacing" textLength="39.6826" x="5" y="868.7129">Admin</text><ellipse cx="27.8413" cy="880.7266" fill="#E2E2F0" rx="8" ry="8" style="stroke:#181818;stroke-width:0.5;"/><path d="M27.8413,888.7266 L27.8413,915.7266 M14.8413,896.7266 L40.8413,896.7266 M27.8413,915.7266 L14.8413,930.7266 M27.8413,915.7266 L40.8413,930.7266 " fill="none" style="stroke:#181818;stroke-width:0.5;"/><rect fill="#E2E2F0" height="32.6211" rx="2.5" ry="2.5" style="stroke:#181818;stroke-width:0.5;" width="135.3926" x="536.2451" y="50"/><text fill="#000000" font-family="sans-serif" font-size="14" lengthAdjust="spacing" textLength="121.3926" x="543.2451" y="72.1074">TeacherInformation</text><rect fill="#E2E2F0" height="32.6211" rx="2.5" ry="2.5" style="stroke:#181818;stroke-width:0.5;" width="135.3926" x="536.2451" y="853.6055"/><text fill="#000000" font-family="sans-serif" font-size="14" lengthAdjust="spacing" textLength="121.3926" x="543.2451" y="875.7129">TeacherInformation</text><rect fill="#E2E2F0" height="32.6211" rx="2.5" ry="2.5" style="stroke:#181818;stroke-width:0.5;" width="72.3584" x="1143.8623" y="50"/><text fill="#000000" font-family="sans-serif" font-size="14" lengthAdjust="spacing" textLength="58.3584" x="1150.8623" y="72.1074">Teachers</text><rect fill="#E2E2F0" height="32.6211" rx="2.5" ry="2.5" style="stroke:#181818;stroke-width:0.5;" width="72.3584" x="1143.8623" y="853.6055"/><text fill="#000000" font-family="sans-serif" font-size="14" lengthAdjust="spacing" textLength="58.3584" x="1150.8623" y="875.7129">Teachers</text><rect fill="#E2E2F0" height="32.6211" rx="2.5" ry="2.5" style="stroke:#181818;stroke-width:0.5;" width="144.7578" x="1330.4141" y="50"/><text fill="#000000" font-family="sans-serif" font-size="14" lengthAdjust="spacing" textLength="130.7578" x="1337.4141" y="72.1074">DatabaseConnection</text><rect fill="#E2E2F0" height="32.6211" rx="2.5" ry="2.5" style="stroke:#181818;stroke-width:0.5;" width="144.7578" x="1330.4141" y="853.6055"/><text fill="#000000" font-family="sans-serif" font-size="14" lengthAdjust="spacing" textLength="130.7578" x="1337.4141" y="875.7129">DatabaseConnection</text><polygon fill="#181818" points="591.9414,112.9121,601.9414,116.9121,591.9414,120.9121,595.9414,116.9121" style="stroke:#181818;stroke-width:1.0;"/><line style="stroke:#181818;stroke-width:1.0;" x1="27.8413" x2="597.9414" y1="116.9121" y2="116.9121"/><text fill="#000000" font-family="sans-serif" font-size="13" lengthAdjust="spacing" textLength="466.0957" x="34.8413" y="111.6494">add_teacher(name, email, username, password, specialization, hire_date, photo)</text><polygon fill="#181818" points="1168.0415,144.2031,1178.0415,148.2031,1168.0415,152.2031,1172.0415,148.2031" style="stroke:#181818;stroke-width:1.0;"/><line style="stroke:#181818;stroke-width:1.0;" x1="603.9414" x2="1174.0415" y1="148.2031" y2="148.2031"/><text fill="#000000" font-family="sans-serif" font-size="13" lengthAdjust="spacing" textLength="466.0957" x="610.9414" y="142.9404">add_teacher(name, email, username, password, specialization, hire_date, photo)</text><polygon fill="#181818" points="1390.793,175.4941,1400.793,179.4941,1390.793,183.4941,1394.793,179.4941" style="stroke:#181818;stroke-width:1.0;"/><line style="stroke:#181818;stroke-width:1.0;" x1="1180.0415" x2="1396.793" y1="179.4941" y2="179.4941"/><text fill="#000000" font-family="sans-serif" font-size="13" lengthAdjust="spacing" textLength="190.7788" x="1187.0415" y="174.2314">connect() and insert teacher data</text><polygon fill="#181818" points="1191.0415,206.7852,1181.0415,210.7852,1191.0415,214.7852,1187.0415,210.7852" style="stroke:#181818;stroke-width:1.0;"/><line style="stroke:#181818;stroke-width:1.0;stroke-dasharray:2.0,2.0;" x1="1185.0415" x2="1401.793" y1="210.7852" y2="210.7852"/><text fill="#000000" font-family="sans-serif" font-size="13" lengthAdjust="spacing" textLength="60.709" x="1197.0415" y="205.5225">teacher_id</text><polygon fill="#181818" points="614.9414,238.0762,604.9414,242.0762,614.9414,246.0762,610.9414,242.0762" style="stroke:#181818;stroke-width:1.0;"/><line style="stroke:#181818;stroke-width:1.0;stroke-dasharray:2.0,2.0;" x1="608.9414" x2="1179.0415" y1="242.0762" y2="242.0762"/><text fill="#000000" font-family="sans-serif" font-size="13" lengthAdjust="spacing" textLength="60.709" x="620.9414" y="236.8135">teacher_id</text><polygon fill="#181818" points="38.8413,269.3672,28.8413,273.3672,38.8413,277.3672,34.8413,273.3672" style="stroke:#181818;stroke-width:1.0;"/><line style="stroke:#181818;stroke-width:1.0;stroke-dasharray:2.0,2.0;" x1="32.8413" x2="602.9414" y1="273.3672" y2="273.3672"/><text fill="#000000" font-family="sans-serif" font-size="13" lengthAdjust="spacing" textLength="161.1416" x="44.8413" y="268.1045">Teacher added successfully</text><polygon fill="#181818" points="591.9414,300.6582,601.9414,304.6582,591.9414,308.6582,595.9414,304.6582" style="stroke:#181818;stroke-width:1.0;"/><line style="stroke:#181818;stroke-width:1.0;" x1="27.8413" x2="597.9414" y1="304.6582" y2="304.6582"/><text fill="#000000" font-family="sans-serif" font-size="13" lengthAdjust="spacing" textLength="552.1001" x="34.8413" y="299.3955">update_teacher(teacher_id, name, email, username, password, specialization, hire_date, photo)</text><polygon fill="#181818" points="1168.0415,331.9492,1178.0415,335.9492,1168.0415,339.9492,1172.0415,335.9492" style="stroke:#181818;stroke-width:1.0;"/><line style="stroke:#181818;stroke-width:1.0;" x1="603.9414" x2="1174.0415" y1="335.9492" y2="335.9492"/><text fill="#000000" font-family="sans-serif" font-size="13" lengthAdjust="spacing" textLength="552.1001" x="610.9414" y="330.6865">update_teacher(teacher_id, name, email, username, password, specialization, hire_date, photo)</text><polygon fill="#181818" points="1390.793,363.2402,1400.793,367.2402,1390.793,371.2402,1394.793,367.2402" style="stroke:#181818;stroke-width:1.0;"/><line style="stroke:#181818;stroke-width:1.0;" x1="1180.0415" x2="1396.793" y1="367.2402" y2="367.2402"/><text fill="#000000" font-family="sans-serif" font-size="13" lengthAdjust="spacing" textLength="198.7515" x="1187.0415" y="361.9775">connect() and update teacher data</text><polygon fill="#181818" points="1191.0415,394.5313,1181.0415,398.5313,1191.0415,402.5313,1187.0415,398.5313" style="stroke:#181818;stroke-width:1.0;"/><line style="stroke:#181818;stroke-width:1.0;stroke-dasharray:2.0,2.0;" x1="1185.0415" x2="1401.793" y1="398.5313" y2="398.5313"/><text fill="#000000" font-family="sans-serif" font-size="13" lengthAdjust="spacing" textLength="85.979" x="1197.0415" y="393.2686">success/failure</text><polygon fill="#181818" points="614.9414,425.8223,604.9414,429.8223,614.9414,433.8223,610.9414,429.8223" style="stroke:#181818;stroke-width:1.0;"/><line style="stroke:#181818;stroke-width:1.0;stroke-dasharray:2.0,2.0;" x1="608.9414" x2="1179.0415" y1="429.8223" y2="429.8223"/><text fill="#000000" font-family="sans-serif" font-size="13" lengthAdjust="spacing" textLength="85.979" x="620.9414" y="424.5596">success/failure</text><polygon fill="#181818" points="38.8413,457.1133,28.8413,461.1133,38.8413,465.1133,34.8413,461.1133" style="stroke:#181818;stroke-width:1.0;"/><line style="stroke:#181818;stroke-width:1.0;stroke-dasharray:2.0,2.0;" x1="32.8413" x2="602.9414" y1="461.1133" y2="461.1133"/><text fill="#000000" font-family="sans-serif" font-size="13" lengthAdjust="spacing" textLength="218.2134" x="44.8413" y="455.8506">Teacher updated successfully or error</text><polygon fill="#181818" points="591.9414,488.4043,601.9414,492.4043,591.9414,496.4043,595.9414,492.4043" style="stroke:#181818;stroke-width:1.0;"/><line style="stroke:#181818;stroke-width:1.0;" x1="27.8413" x2="597.9414" y1="492.4043" y2="492.4043"/><text fill="#000000" font-family="sans-serif" font-size="13" lengthAdjust="spacing" textLength="155.3779" x="34.8413" y="487.1416">delete_teacher(teacher_id)</text><polygon fill="#181818" points="1168.0415,519.6953,1178.0415,523.6953,1168.0415,527.6953,1172.0415,523.6953" style="stroke:#181818;stroke-width:1.0;"/><line style="stroke:#181818;stroke-width:1.0;" x1="603.9414" x2="1174.0415" y1="523.6953" y2="523.6953"/><text fill="#000000" font-family="sans-serif" font-size="13" lengthAdjust="spacing" textLength="155.3779" x="610.9414" y="518.4326">delete_teacher(teacher_id)</text><polygon fill="#181818" points="1390.793,550.9863,1400.793,554.9863,1390.793,558.9863,1394.793,554.9863" style="stroke:#181818;stroke-width:1.0;"/><line style="stroke:#181818;stroke-width:1.0;" x1="1180.0415" x2="1396.793" y1="554.9863" y2="554.9863"/><text fill="#000000" font-family="sans-serif" font-size="13" lengthAdjust="spacing" textLength="194.4097" x="1187.0415" y="549.7236">connect() and delete teacher data</text><polygon fill="#181818" points="1191.0415,582.2773,1181.0415,586.2773,1191.0415,590.2773,1187.0415,586.2773" style="stroke:#181818;stroke-width:1.0;"/><line style="stroke:#181818;stroke-width:1.0;stroke-dasharray:2.0,2.0;" x1="1185.0415" x2="1401.793" y1="586.2773" y2="586.2773"/><text fill="#000000" font-family="sans-serif" font-size="13" lengthAdjust="spacing" textLength="85.979" x="1197.0415" y="581.0146">success/failure</text><polygon fill="#181818" points="614.9414,613.5684,604.9414,617.5684,614.9414,621.5684,610.9414,617.5684" style="stroke:#181818;stroke-width:1.0;"/><line style="stroke:#181818;stroke-width:1.0;stroke-dasharray:2.0,2.0;" x1="608.9414" x2="1179.0415" y1="617.5684" y2="617.5684"/><text fill="#000000" font-family="sans-serif" font-size="13" lengthAdjust="spacing" textLength="85.979" x="620.9414" y="612.3057">success/failure</text><polygon fill="#181818" points="38.8413,644.8594,28.8413,648.8594,38.8413,652.8594,34.8413,648.8594" style="stroke:#181818;stroke-width:1.0;"/><line style="stroke:#181818;stroke-width:1.0;stroke-dasharray:2.0,2.0;" x1="32.8413" x2="602.9414" y1="648.8594" y2="648.8594"/><text fill="#000000" font-family="sans-serif" font-size="13" lengthAdjust="spacing" textLength="213.8716" x="44.8413" y="643.5967">Teacher deleted successfully or error</text><polygon fill="#181818" points="591.9414,676.1504,601.9414,680.1504,591.9414,684.1504,595.9414,680.1504" style="stroke:#181818;stroke-width:1.0;"/><line style="stroke:#181818;stroke-width:1.0;" x1="27.8413" x2="597.9414" y1="680.1504" y2="680.1504"/><text fill="#000000" font-family="sans-serif" font-size="13" lengthAdjust="spacing" textLength="104.0571" x="34.8413" y="674.8877">get_all_teachers()</text><polygon fill="#181818" points="1168.0415,707.4414,1178.0415,711.4414,1168.0415,715.4414,1172.0415,711.4414" style="stroke:#181818;stroke-width:1.0;"/><line style="stroke:#181818;stroke-width:1.0;" x1="603.9414" x2="1174.0415" y1="711.4414" y2="711.4414"/><text fill="#000000" font-family="sans-serif" font-size="13" lengthAdjust="spacing" textLength="104.0571" x="610.9414" y="706.1787">get_all_teachers()</text><polygon fill="#181818" points="1390.793,738.7324,1400.793,742.7324,1390.793,746.7324,1394.793,742.7324" style="stroke:#181818;stroke-width:1.0;"/><line style="stroke:#181818;stroke-width:1.0;" x1="1180.0415" x2="1396.793" y1="742.7324" y2="742.7324"/><text fill="#000000" font-family="sans-serif" font-size="13" lengthAdjust="spacing" textLength="181.3779" x="1187.0415" y="737.4697">connect() and fetch all teachers</text><polygon fill="#181818" points="1191.0415,770.0234,1181.0415,774.0234,1191.0415,778.0234,1187.0415,774.0234" style="stroke:#181818;stroke-width:1.0;"/><line style="stroke:#181818;stroke-width:1.0;stroke-dasharray:2.0,2.0;" x1="1185.0415" x2="1401.793" y1="774.0234" y2="774.0234"/><text fill="#000000" font-family="sans-serif" font-size="13" lengthAdjust="spacing" textLength="83.8145" x="1197.0415" y="768.7607">list of teachers</text><polygon fill="#181818" points="614.9414,801.3145,604.9414,805.3145,614.9414,809.3145,610.9414,805.3145" style="stroke:#181818;stroke-width:1.0;"/><line style="stroke:#181818;stroke-width:1.0;stroke-dasharray:2.0,2.0;" x1="608.9414" x2="1179.0415" y1="805.3145" y2="805.3145"/><text fill="#000000" font-family="sans-serif" font-size="13" lengthAdjust="spacing" textLength="83.8145" x="620.9414" y="800.0518">list of teachers</text><polygon fill="#181818" points="38.8413,832.6055,28.8413,836.6055,38.8413,840.6055,34.8413,836.6055" style="stroke:#181818;stroke-width:1.0;"/><line style="stroke:#181818;stroke-width:1.0;stroke-dasharray:2.0,2.0;" x1="32.8413" x2="602.9414" y1="836.6055" y2="836.6055"/><text fill="#000000" font-family="sans-serif" font-size="13" lengthAdjust="spacing" textLength="83.8145" x="44.8413" y="831.3428">list of teachers</text><!--SRC=[pPG_RuCm4CLtFiKf2ub4oivGgMgNxjtHnJw29MDJdscLVlgQaF-4E1rQTGFhthtdtnEajVSj5tdUQZI-Q_I3i4tEzDwH4RIK2jSEcoH9KKhmXA8c1wiDe6oKIHCKtZfuwb-I5frNGhLX3ypUXj5NKrdNe5VMpAuEyCNn2tfS8TEpDOR4eDkkX-KZZ9SM8OWiTxdc1XlAW1fKEeEEoGq7BJ9_MYSpu9Q4Ggs-jk8CQkMebEZxeTfwkqZ65YV6_5jst9kChrw069xd2q0ZGPbWuWyrX4sOZ5MmF4kycowLF76RW3cUFGCHLDikYhsunq4Ik1E2cAjEwytjjhgsl_w1uD4lWpyexq_Sx-nooFB3BdUWyoh4x1p52vqGH5eTiftt2k4x9-UiIr97ZVquH4zlDov9qrNcyRhYqZjP3ul-9-iXsoHhgJZycSF_LkjzVeuGNvClm_YU6y_ZfASbTnAko8lwB6GSi5RimLP7HPJmb682yUNuDm00]--></g></svg>